<svg xmlns="http://www.w3.org/2000/svg" xmlns:xlink="http://www.w3.org/1999/xlink" width="2000" zoomAndPan="magnify" viewBox="0 0 1500 299.999988" height="400" preserveAspectRatio="xMidYMid meet" version="1.0"><defs><g/></defs><g fill="#0085ff" fill-opacity="1"><g transform="translate(1261.858085, 108.182719)"><g><path d="M 34.40625 -37.4375 C 34.882812 -37.6875 35.328125 -37.8125 35.734375 -37.8125 C 36.535156 -37.8125 37.203125 -37.289062 37.734375 -36.25 C 38.023438 -35.664062 38.171875 -35.15625 38.171875 -34.71875 C 38.171875 -33.925781 37.675781 -33.285156 36.6875 -32.796875 L 12.328125 -21.125 L 36.6875 -9.453125 C 37.675781 -8.972656 38.171875 -8.335938 38.171875 -7.546875 C 38.171875 -7.109375 38.023438 -6.597656 37.734375 -6.015625 C 37.203125 -4.972656 36.535156 -4.453125 35.734375 -4.453125 C 35.328125 -4.453125 34.882812 -4.578125 34.40625 -4.828125 L 6.234375 -18.625 C 5.628906 -18.914062 5.191406 -19.253906 4.921875 -19.640625 C 4.660156 -20.023438 4.53125 -20.519531 4.53125 -21.125 C 4.53125 -21.726562 4.660156 -22.222656 4.921875 -22.609375 C 5.191406 -23.003906 5.628906 -23.347656 6.234375 -23.640625 Z M 34.40625 -37.4375 "/></g></g></g><g fill="#0085ff" fill-opacity="1"><g transform="translate(1306.36414, 108.182719)"><g><path d="M 24.25 -34.296875 C 27.25 -34.296875 29.929688 -33.585938 32.296875 -32.171875 C 34.660156 -30.753906 36.519531 -28.722656 37.875 -26.078125 C 39.226562 -23.429688 39.90625 -20.320312 39.90625 -16.75 C 39.90625 -13.164062 39.226562 -10.050781 37.875 -7.40625 C 36.519531 -4.757812 34.660156 -2.726562 32.296875 -1.3125 C 29.929688 0.09375 27.25 0.796875 24.25 0.796875 C 19.707031 0.796875 15.878906 -1.195312 12.765625 -5.1875 L 12.765625 9.140625 L 19 9.140625 C 19.8125 9.140625 20.394531 9.328125 20.75 9.703125 C 21.101562 10.078125 21.28125 10.707031 21.28125 11.59375 C 21.28125 12.488281 21.101562 13.125 20.75 13.5 C 20.394531 13.875 19.8125 14.0625 19 14.0625 L 3.625 14.0625 C 2.800781 14.0625 2.210938 13.875 1.859375 13.5 C 1.515625 13.125 1.34375 12.488281 1.34375 11.59375 C 1.34375 10.707031 1.515625 10.078125 1.859375 9.703125 C 2.210938 9.328125 2.800781 9.140625 3.625 9.140625 L 7.328125 9.140625 L 7.328125 -28.5625 L 4.34375 -28.5625 C 3.53125 -28.5625 2.945312 -28.75 2.59375 -29.125 C 2.238281 -29.5 2.0625 -30.132812 2.0625 -31.03125 C 2.0625 -31.925781 2.238281 -32.5625 2.59375 -32.9375 C 2.945312 -33.3125 3.53125 -33.5 4.34375 -33.5 L 10.109375 -33.5 C 10.929688 -33.5 11.515625 -33.3125 11.859375 -32.9375 C 12.210938 -32.5625 12.390625 -31.925781 12.390625 -31.03125 L 12.390625 -28.125 C 13.921875 -30.101562 15.6875 -31.625 17.6875 -32.6875 C 19.695312 -33.757812 21.882812 -34.296875 24.25 -34.296875 Z M 23.890625 -28.921875 C 21.734375 -28.921875 19.816406 -28.4375 18.140625 -27.46875 C 16.460938 -26.507812 15.144531 -25.109375 14.1875 -23.265625 C 13.238281 -21.429688 12.765625 -19.257812 12.765625 -16.75 C 12.765625 -14.226562 13.238281 -12.050781 14.1875 -10.21875 C 15.144531 -8.382812 16.460938 -6.984375 18.140625 -6.015625 C 19.816406 -5.046875 21.734375 -4.5625 23.890625 -4.5625 C 26.035156 -4.5625 27.878906 -5.070312 29.421875 -6.09375 C 30.972656 -7.125 32.15625 -8.554688 32.96875 -10.390625 C 33.78125 -12.234375 34.1875 -14.351562 34.1875 -16.75 C 34.1875 -19.132812 33.78125 -21.242188 32.96875 -23.078125 C 32.15625 -24.921875 30.972656 -26.351562 29.421875 -27.375 C 27.878906 -28.40625 26.035156 -28.921875 23.890625 -28.921875 Z M 23.890625 -28.921875 "/></g></g></g><g fill="#0085ff" fill-opacity="1"><g transform="translate(1350.870195, 108.182719)"><g><path d="M 34 -50.53125 C 34.96875 -50.53125 35.765625 -50.347656 36.390625 -49.984375 C 37.015625 -49.617188 37.328125 -49.160156 37.328125 -48.609375 C 37.328125 -48.410156 37.289062 -48.203125 37.21875 -47.984375 L 12.875 11.5625 C 12.695312 11.945312 12.394531 12.257812 11.96875 12.5 C 11.550781 12.75 11.066406 12.875 10.515625 12.875 C 9.546875 12.875 8.742188 12.691406 8.109375 12.328125 C 7.484375 11.960938 7.171875 11.503906 7.171875 10.953125 C 7.171875 10.753906 7.207031 10.546875 7.28125 10.328125 L 31.640625 -49.21875 C 31.804688 -49.601562 32.101562 -49.914062 32.53125 -50.15625 C 32.957031 -50.40625 33.445312 -50.53125 34 -50.53125 Z M 34 -50.53125 "/></g></g></g><g fill="#0085ff" fill-opacity="1"><g transform="translate(1395.37625, 108.182719)"><g><path d="M 38.28125 -23.640625 C 38.882812 -23.347656 39.316406 -23.003906 39.578125 -22.609375 C 39.847656 -22.222656 39.984375 -21.726562 39.984375 -21.125 C 39.984375 -20.519531 39.847656 -20.023438 39.578125 -19.640625 C 39.316406 -19.253906 38.882812 -18.914062 38.28125 -18.625 L 10.109375 -4.828125 C 9.628906 -4.578125 9.179688 -4.453125 8.765625 -4.453125 C 7.972656 -4.453125 7.3125 -4.972656 6.78125 -6.015625 C 6.488281 -6.597656 6.34375 -7.109375 6.34375 -7.546875 C 6.34375 -8.335938 6.835938 -8.972656 7.828125 -9.453125 L 32.1875 -21.125 L 7.828125 -32.796875 C 6.835938 -33.285156 6.34375 -33.925781 6.34375 -34.71875 C 6.34375 -35.15625 6.488281 -35.664062 6.78125 -36.25 C 7.3125 -37.289062 7.972656 -37.8125 8.765625 -37.8125 C 9.179688 -37.8125 9.628906 -37.6875 10.109375 -37.4375 Z M 38.28125 -23.640625 "/></g></g></g><g fill="#0085ff" fill-opacity="1"><g transform="translate(60.785181, 108.081097)"><g><path d="M 34.40625 -37.4375 C 34.882812 -37.6875 35.328125 -37.8125 35.734375 -37.8125 C 36.535156 -37.8125 37.203125 -37.289062 37.734375 -36.25 C 38.023438 -35.664062 38.171875 -35.15625 38.171875 -34.71875 C 38.171875 -33.925781 37.675781 -33.285156 36.6875 -32.796875 L 12.328125 -21.125 L 36.6875 -9.453125 C 37.675781 -8.972656 38.171875 -8.335938 38.171875 -7.546875 C 38.171875 -7.109375 38.023438 -6.597656 37.734375 -6.015625 C 37.203125 -4.972656 36.535156 -4.453125 35.734375 -4.453125 C 35.328125 -4.453125 34.882812 -4.578125 34.40625 -4.828125 L 6.234375 -18.625 C 5.628906 -18.914062 5.191406 -19.253906 4.921875 -19.640625 C 4.660156 -20.023438 4.53125 -20.519531 4.53125 -21.125 C 4.53125 -21.726562 4.660156 -22.222656 4.921875 -22.609375 C 5.191406 -23.003906 5.628906 -23.347656 6.234375 -23.640625 Z M 34.40625 -37.4375 "/></g></g></g><g fill="#0085ff" fill-opacity="1"><g transform="translate(105.29212, 108.081097)"><g><path d="M 24.25 -34.296875 C 27.25 -34.296875 29.929688 -33.585938 32.296875 -32.171875 C 34.660156 -30.753906 36.519531 -28.722656 37.875 -26.078125 C 39.226562 -23.429688 39.90625 -20.320312 39.90625 -16.75 C 39.90625 -13.164062 39.226562 -10.050781 37.875 -7.40625 C 36.519531 -4.757812 34.660156 -2.726562 32.296875 -1.3125 C 29.929688 0.09375 27.25 0.796875 24.25 0.796875 C 19.707031 0.796875 15.878906 -1.195312 12.765625 -5.1875 L 12.765625 9.140625 L 19 9.140625 C 19.8125 9.140625 20.394531 9.328125 20.75 9.703125 C 21.101562 10.078125 21.28125 10.707031 21.28125 11.59375 C 21.28125 12.488281 21.101562 13.125 20.75 13.5 C 20.394531 13.875 19.8125 14.0625 19 14.0625 L 3.625 14.0625 C 2.800781 14.0625 2.210938 13.875 1.859375 13.5 C 1.515625 13.125 1.34375 12.488281 1.34375 11.59375 C 1.34375 10.707031 1.515625 10.078125 1.859375 9.703125 C 2.210938 9.328125 2.800781 9.140625 3.625 9.140625 L 7.328125 9.140625 L 7.328125 -28.5625 L 4.34375 -28.5625 C 3.53125 -28.5625 2.945312 -28.75 2.59375 -29.125 C 2.238281 -29.5 2.0625 -30.132812 2.0625 -31.03125 C 2.0625 -31.925781 2.238281 -32.5625 2.59375 -32.9375 C 2.945312 -33.3125 3.53125 -33.5 4.34375 -33.5 L 10.109375 -33.5 C 10.929688 -33.5 11.515625 -33.3125 11.859375 -32.9375 C 12.210938 -32.5625 12.390625 -31.925781 12.390625 -31.03125 L 12.390625 -28.125 C 13.921875 -30.101562 15.6875 -31.625 17.6875 -32.6875 C 19.695312 -33.757812 21.882812 -34.296875 24.25 -34.296875 Z M 23.890625 -28.921875 C 21.734375 -28.921875 19.816406 -28.4375 18.140625 -27.46875 C 16.460938 -26.507812 15.144531 -25.109375 14.1875 -23.265625 C 13.238281 -21.429688 12.765625 -19.257812 12.765625 -16.75 C 12.765625 -14.226562 13.238281 -12.050781 14.1875 -10.21875 C 15.144531 -8.382812 16.460938 -6.984375 18.140625 -6.015625 C 19.816406 -5.046875 21.734375 -4.5625 23.890625 -4.5625 C 26.035156 -4.5625 27.878906 -5.070312 29.421875 -6.09375 C 30.972656 -7.125 32.15625 -8.554688 32.96875 -10.390625 C 33.78125 -12.234375 34.1875 -14.351562 34.1875 -16.75 C 34.1875 -19.132812 33.78125 -21.242188 32.96875 -23.078125 C 32.15625 -24.921875 30.972656 -26.351562 29.421875 -27.375 C 27.878906 -28.40625 26.035156 -28.921875 23.890625 -28.921875 Z M 23.890625 -28.921875 "/></g></g></g><g fill="#0085ff" fill-opacity="1"><g transform="translate(149.799059, 108.081097)"><g/></g></g><g fill="#0085ff" fill-opacity="1"><g transform="translate(194.305998, 108.081097)"><g><path d="M 23.5625 -33.5 C 24.382812 -33.5 24.96875 -33.3125 25.3125 -32.9375 C 25.664062 -32.5625 25.84375 -31.925781 25.84375 -31.03125 L 25.84375 -4.921875 L 37.484375 -4.921875 C 38.304688 -4.921875 38.890625 -4.734375 39.234375 -4.359375 C 39.585938 -3.992188 39.765625 -3.363281 39.765625 -2.46875 C 39.765625 -1.570312 39.585938 -0.9375 39.234375 -0.5625 C 38.890625 -0.1875 38.304688 0 37.484375 0 L 9.0625 0 C 8.238281 0 7.648438 -0.1875 7.296875 -0.5625 C 6.953125 -0.9375 6.78125 -1.570312 6.78125 -2.46875 C 6.78125 -3.363281 6.953125 -3.992188 7.296875 -4.359375 C 7.648438 -4.734375 8.238281 -4.921875 9.0625 -4.921875 L 20.40625 -4.921875 L 20.40625 -28.5625 L 11.234375 -28.5625 C 10.410156 -28.5625 9.820312 -28.75 9.46875 -29.125 C 9.125 -29.5 8.953125 -30.132812 8.953125 -31.03125 C 8.953125 -31.925781 9.125 -32.5625 9.46875 -32.9375 C 9.820312 -33.3125 10.410156 -33.5 11.234375 -33.5 Z M 22.390625 -49.40625 C 23.722656 -49.40625 24.628906 -49.226562 25.109375 -48.875 C 25.597656 -48.53125 25.84375 -47.921875 25.84375 -47.046875 L 25.84375 -42.34375 C 25.84375 -41.46875 25.597656 -40.851562 25.109375 -40.5 C 24.628906 -40.15625 23.722656 -39.984375 22.390625 -39.984375 C 21.066406 -39.984375 20.160156 -40.15625 19.671875 -40.5 C 19.191406 -40.851562 18.953125 -41.46875 18.953125 -42.34375 L 18.953125 -47.046875 C 18.953125 -47.921875 19.191406 -48.53125 19.671875 -48.875 C 20.160156 -49.226562 21.066406 -49.40625 22.390625 -49.40625 Z M 22.390625 -49.40625 "/></g></g></g><g fill="#0085ff" fill-opacity="1"><g transform="translate(238.812937, 108.081097)"><g><path d="M 34.90625 -47.5625 C 35.726562 -47.5625 36.3125 -47.375 36.65625 -47 C 37.007812 -46.625 37.1875 -45.988281 37.1875 -45.09375 L 37.1875 -4.921875 L 40.15625 -4.921875 C 40.976562 -4.921875 41.566406 -4.734375 41.921875 -4.359375 C 42.273438 -3.992188 42.453125 -3.363281 42.453125 -2.46875 C 42.453125 -1.570312 42.273438 -0.9375 41.921875 -0.5625 C 41.566406 -0.1875 40.976562 0 40.15625 0 L 34.40625 0 C 33.582031 0 32.992188 -0.1875 32.640625 -0.5625 C 32.285156 -0.9375 32.109375 -1.570312 32.109375 -2.46875 L 32.109375 -5.359375 C 30.585938 -3.378906 28.820312 -1.859375 26.8125 -0.796875 C 24.8125 0.265625 22.628906 0.796875 20.265625 0.796875 C 17.265625 0.796875 14.578125 0.09375 12.203125 -1.3125 C 9.835938 -2.726562 7.976562 -4.757812 6.625 -7.40625 C 5.28125 -10.050781 4.609375 -13.164062 4.609375 -16.75 C 4.609375 -20.320312 5.28125 -23.429688 6.625 -26.078125 C 7.976562 -28.722656 9.835938 -30.753906 12.203125 -32.171875 C 14.578125 -33.585938 17.265625 -34.296875 20.265625 -34.296875 C 24.804688 -34.296875 28.632812 -32.300781 31.75 -28.3125 L 31.75 -42.625 L 25.875 -42.625 C 25.050781 -42.625 24.460938 -42.8125 24.109375 -43.1875 C 23.765625 -43.5625 23.59375 -44.195312 23.59375 -45.09375 C 23.59375 -45.988281 23.765625 -46.625 24.109375 -47 C 24.460938 -47.375 25.050781 -47.5625 25.875 -47.5625 Z M 20.625 -28.921875 C 18.476562 -28.921875 16.628906 -28.40625 15.078125 -27.375 C 13.535156 -26.351562 12.359375 -24.921875 11.546875 -23.078125 C 10.734375 -21.242188 10.328125 -19.132812 10.328125 -16.75 C 10.328125 -14.351562 10.734375 -12.234375 11.546875 -10.390625 C 12.359375 -8.554688 13.535156 -7.125 15.078125 -6.09375 C 16.628906 -5.070312 18.476562 -4.5625 20.625 -4.5625 C 22.769531 -4.5625 24.679688 -5.046875 26.359375 -6.015625 C 28.046875 -6.984375 29.363281 -8.382812 30.3125 -10.21875 C 31.269531 -12.050781 31.75 -14.226562 31.75 -16.75 C 31.75 -19.257812 31.269531 -21.429688 30.3125 -23.265625 C 29.363281 -25.109375 28.046875 -26.507812 26.359375 -27.46875 C 24.679688 -28.4375 22.769531 -28.921875 20.625 -28.921875 Z M 20.625 -28.921875 "/></g></g></g><g fill="#0085ff" fill-opacity="1"><g transform="translate(283.319876, 108.081097)"><g><path d="M 36.0625 -30.8125 C 36.882812 -30.8125 37.46875 -30.625 37.8125 -30.25 C 38.164062 -29.875 38.34375 -29.238281 38.34375 -28.34375 C 38.34375 -27.445312 38.164062 -26.8125 37.8125 -26.4375 C 37.46875 -26.0625 36.882812 -25.875 36.0625 -25.875 L 8.453125 -25.875 C 7.628906 -25.875 7.039062 -26.0625 6.6875 -26.4375 C 6.332031 -26.8125 6.15625 -27.445312 6.15625 -28.34375 C 6.15625 -29.238281 6.332031 -29.875 6.6875 -30.25 C 7.039062 -30.625 7.628906 -30.8125 8.453125 -30.8125 Z M 36.0625 -16.3125 C 36.882812 -16.3125 37.46875 -16.125 37.8125 -15.75 C 38.164062 -15.375 38.34375 -14.738281 38.34375 -13.84375 C 38.34375 -12.945312 38.164062 -12.3125 37.8125 -11.9375 C 37.46875 -11.5625 36.882812 -11.375 36.0625 -11.375 L 8.453125 -11.375 C 7.628906 -11.375 7.039062 -11.5625 6.6875 -11.9375 C 6.332031 -12.3125 6.15625 -12.945312 6.15625 -13.84375 C 6.15625 -14.738281 6.332031 -15.375 6.6875 -15.75 C 7.039062 -16.125 7.628906 -16.3125 8.453125 -16.3125 Z M 36.0625 -16.3125 "/></g></g></g><g fill="#ff8f33" fill-opacity="1"><g transform="translate(327.832038, 108.081097)"><g><path d="M 18.921875 -46 C 19.335938 -46 19.660156 -45.890625 19.890625 -45.671875 C 20.117188 -45.453125 20.234375 -45.160156 20.234375 -44.796875 C 20.234375 -44.503906 20.132812 -44.144531 19.9375 -43.71875 L 11.96875 -27.4375 C 11.457031 -26.394531 10.5625 -25.875 9.28125 -25.875 C 8.582031 -25.875 8.019531 -26.039062 7.59375 -26.375 C 7.175781 -26.71875 6.96875 -27.179688 6.96875 -27.765625 C 6.96875 -27.890625 6.988281 -28.09375 7.03125 -28.375 L 10.703125 -44.546875 C 10.921875 -45.515625 11.546875 -46 12.578125 -46 Z M 36.671875 -46 C 37.085938 -46 37.410156 -45.890625 37.640625 -45.671875 C 37.867188 -45.453125 37.984375 -45.160156 37.984375 -44.796875 C 37.984375 -44.503906 37.882812 -44.144531 37.6875 -43.71875 L 29.71875 -27.4375 C 29.207031 -26.394531 28.3125 -25.875 27.03125 -25.875 C 26.332031 -25.875 25.769531 -26.039062 25.34375 -26.375 C 24.925781 -26.71875 24.71875 -27.179688 24.71875 -27.765625 C 24.71875 -27.890625 24.738281 -28.09375 24.78125 -28.375 L 28.453125 -44.546875 C 28.671875 -45.515625 29.296875 -46 30.328125 -46 Z M 36.671875 -46 "/></g></g></g><g fill="#ff8f33" fill-opacity="1"><g transform="translate(372.338977, 108.081097)"><g><path d="M 10.46875 -47.5625 C 11.289062 -47.5625 11.878906 -47.375 12.234375 -47 C 12.585938 -46.625 12.765625 -45.988281 12.765625 -45.09375 L 12.765625 -28.3125 C 15.878906 -32.300781 19.707031 -34.296875 24.25 -34.296875 C 27.25 -34.296875 29.929688 -33.585938 32.296875 -32.171875 C 34.660156 -30.753906 36.519531 -28.722656 37.875 -26.078125 C 39.226562 -23.429688 39.90625 -20.320312 39.90625 -16.75 C 39.90625 -13.164062 39.226562 -10.050781 37.875 -7.40625 C 36.519531 -4.757812 34.660156 -2.726562 32.296875 -1.3125 C 29.929688 0.09375 27.25 0.796875 24.25 0.796875 C 21.882812 0.796875 19.695312 0.265625 17.6875 -0.796875 C 15.6875 -1.859375 13.921875 -3.378906 12.390625 -5.359375 L 12.390625 -2.46875 C 12.390625 -1.570312 12.210938 -0.9375 11.859375 -0.5625 C 11.515625 -0.1875 10.929688 0 10.109375 0 L 4.34375 0 C 3.53125 0 2.945312 -0.1875 2.59375 -0.5625 C 2.238281 -0.9375 2.0625 -1.570312 2.0625 -2.46875 C 2.0625 -3.363281 2.238281 -3.992188 2.59375 -4.359375 C 2.945312 -4.734375 3.53125 -4.921875 4.34375 -4.921875 L 7.328125 -4.921875 L 7.328125 -42.625 L 3.625 -42.625 C 2.800781 -42.625 2.210938 -42.8125 1.859375 -43.1875 C 1.515625 -43.5625 1.34375 -44.195312 1.34375 -45.09375 C 1.34375 -45.988281 1.515625 -46.625 1.859375 -47 C 2.210938 -47.375 2.800781 -47.5625 3.625 -47.5625 Z M 23.890625 -28.921875 C 21.734375 -28.921875 19.816406 -28.4375 18.140625 -27.46875 C 16.460938 -26.507812 15.144531 -25.109375 14.1875 -23.265625 C 13.238281 -21.429688 12.765625 -19.257812 12.765625 -16.75 C 12.765625 -14.226562 13.238281 -12.050781 14.1875 -10.21875 C 15.144531 -8.382812 16.460938 -6.984375 18.140625 -6.015625 C 19.816406 -5.046875 21.734375 -4.5625 23.890625 -4.5625 C 26.035156 -4.5625 27.878906 -5.070312 29.421875 -6.09375 C 30.972656 -7.125 32.15625 -8.554688 32.96875 -10.390625 C 33.78125 -12.234375 34.1875 -14.351562 34.1875 -16.75 C 34.1875 -19.132812 33.78125 -21.242188 32.96875 -23.078125 C 32.15625 -24.921875 30.972656 -26.351562 29.421875 -27.375 C 27.878906 -28.40625 26.035156 -28.921875 23.890625 -28.921875 Z M 23.890625 -28.921875 "/></g></g></g><g fill="#ff8f33" fill-opacity="1"><g transform="translate(416.845916, 108.081097)"><g><path d="M 22.578125 -34.296875 C 26.085938 -34.296875 29.078125 -33.585938 31.546875 -32.171875 C 34.023438 -30.753906 35.925781 -28.796875 37.25 -26.296875 C 38.582031 -23.796875 39.347656 -20.914062 39.546875 -17.65625 C 39.546875 -16.832031 39.367188 -16.25 39.015625 -15.90625 C 38.671875 -15.570312 38.085938 -15.40625 37.265625 -15.40625 L 11.015625 -15.40625 C 11.179688 -11.800781 12.25 -9.070312 14.21875 -7.21875 C 16.195312 -5.375 18.984375 -4.453125 22.578125 -4.453125 C 24.804688 -4.453125 27.003906 -4.734375 29.171875 -5.296875 C 31.347656 -5.867188 33.257812 -6.628906 34.90625 -7.578125 C 35.3125 -7.796875 35.6875 -7.90625 36.03125 -7.90625 C 36.875 -7.90625 37.5625 -7.265625 38.09375 -5.984375 C 38.3125 -5.472656 38.421875 -5.015625 38.421875 -4.609375 C 38.421875 -3.640625 37.890625 -2.890625 36.828125 -2.359375 C 34.960938 -1.410156 32.757812 -0.644531 30.21875 -0.0625 C 27.6875 0.507812 25.140625 0.796875 22.578125 0.796875 C 18.929688 0.796875 15.816406 0.0976562 13.234375 -1.296875 C 10.648438 -2.703125 8.679688 -4.722656 7.328125 -7.359375 C 5.972656 -9.992188 5.296875 -13.125 5.296875 -16.75 C 5.296875 -20.195312 6.03125 -23.25 7.5 -25.90625 C 8.976562 -28.570312 11.019531 -30.632812 13.625 -32.09375 C 16.238281 -33.5625 19.222656 -34.296875 22.578125 -34.296875 Z M 22.578125 -29.03125 C 19.609375 -29.03125 17.148438 -28.273438 15.203125 -26.765625 C 13.253906 -25.253906 11.976562 -23.160156 11.375 -20.484375 L 33.53125 -20.484375 C 33.019531 -23.253906 31.851562 -25.367188 30.03125 -26.828125 C 28.207031 -28.296875 25.722656 -29.03125 22.578125 -29.03125 Z M 22.578125 -29.03125 "/></g></g></g><g fill="#ff8f33" fill-opacity="1"><g transform="translate(461.352855, 108.081097)"><g><path d="M 42.59375 -33.5 C 43.414062 -33.5 44 -33.3125 44.34375 -32.9375 C 44.695312 -32.5625 44.875 -31.925781 44.875 -31.03125 C 44.875 -30.132812 44.695312 -29.5 44.34375 -29.125 C 44 -28.75 43.414062 -28.5625 42.59375 -28.5625 L 41.71875 -28.5625 L 34.578125 -1.5625 C 34.335938 -0.6875 33.976562 -0.078125 33.5 0.265625 C 33.03125 0.617188 32.335938 0.796875 31.421875 0.796875 C 30.390625 0.796875 29.578125 0.609375 28.984375 0.234375 C 28.390625 -0.140625 27.945312 -0.738281 27.65625 -1.5625 L 22.109375 -17.296875 L 16.5 -1.5625 C 16.207031 -0.738281 15.75 -0.140625 15.125 0.234375 C 14.507812 0.609375 13.6875 0.796875 12.65625 0.796875 C 11.726562 0.796875 11.035156 0.617188 10.578125 0.265625 C 10.117188 -0.078125 9.78125 -0.6875 9.5625 -1.5625 L 2.578125 -28.5625 L 1.921875 -28.5625 C 1.097656 -28.5625 0.507812 -28.75 0.15625 -29.125 C -0.1875 -29.5 -0.359375 -30.132812 -0.359375 -31.03125 C -0.359375 -31.925781 -0.1875 -32.5625 0.15625 -32.9375 C 0.507812 -33.3125 1.097656 -33.5 1.921875 -33.5 L 12.578125 -33.5 C 13.398438 -33.5 13.984375 -33.3125 14.328125 -32.9375 C 14.679688 -32.5625 14.859375 -31.925781 14.859375 -31.03125 C 14.859375 -30.132812 14.679688 -29.5 14.328125 -29.125 C 13.984375 -28.75 13.398438 -28.5625 12.578125 -28.5625 L 8.125 -28.5625 L 13.34375 -7.46875 L 19.390625 -24.28125 C 19.554688 -24.789062 19.867188 -25.203125 20.328125 -25.515625 C 20.785156 -25.828125 21.390625 -25.984375 22.140625 -25.984375 C 23.671875 -25.984375 24.601562 -25.503906 24.9375 -24.546875 L 30.953125 -7.46875 L 36.3125 -28.5625 L 32.65625 -28.5625 C 31.832031 -28.5625 31.242188 -28.75 30.890625 -29.125 C 30.546875 -29.5 30.375 -30.132812 30.375 -31.03125 C 30.375 -31.925781 30.546875 -32.5625 30.890625 -32.9375 C 31.242188 -33.3125 31.832031 -33.5 32.65625 -33.5 Z M 42.59375 -33.5 "/></g></g></g><g fill="#ff8f33" fill-opacity="1"><g transform="translate(505.859794, 108.081097)"><g><path d="M 22.40625 -34.296875 C 26.945312 -34.296875 30.351562 -33.28125 32.625 -31.25 C 34.894531 -29.21875 36.03125 -26.207031 36.03125 -22.21875 L 36.03125 -7.796875 C 36.03125 -5.878906 36.828125 -4.921875 38.421875 -4.921875 L 39.6875 -4.921875 C 40.507812 -4.921875 41.09375 -4.734375 41.4375 -4.359375 C 41.789062 -3.992188 41.96875 -3.363281 41.96875 -2.46875 C 41.96875 -1.570312 41.789062 -0.9375 41.4375 -0.5625 C 41.09375 -0.1875 40.507812 0 39.6875 0 L 37.375 0 C 35.800781 0 34.453125 -0.390625 33.328125 -1.171875 C 32.203125 -1.960938 31.472656 -3.117188 31.140625 -4.640625 C 29.160156 -2.898438 27.015625 -1.554688 24.703125 -0.609375 C 22.390625 0.328125 19.941406 0.796875 17.359375 0.796875 C 14.921875 0.796875 12.765625 0.378906 10.890625 -0.453125 C 9.015625 -1.285156 7.546875 -2.5 6.484375 -4.09375 C 5.421875 -5.6875 4.890625 -7.582031 4.890625 -9.78125 C 4.890625 -13.601562 6.253906 -16.425781 8.984375 -18.25 C 11.710938 -20.070312 15.242188 -20.984375 19.578125 -20.984375 C 23.421875 -20.984375 27.09375 -20.367188 30.59375 -19.140625 L 30.59375 -22.21875 C 30.59375 -24.5625 29.929688 -26.28125 28.609375 -27.375 C 27.296875 -28.476562 25.175781 -29.03125 22.25 -29.03125 C 20.4375 -29.03125 18.550781 -28.773438 16.59375 -28.265625 C 14.644531 -27.765625 12.785156 -27.066406 11.015625 -26.171875 C 10.609375 -25.953125 10.234375 -25.84375 9.890625 -25.84375 C 9.097656 -25.84375 8.4375 -26.421875 7.90625 -27.578125 C 7.632812 -28.160156 7.5 -28.644531 7.5 -29.03125 C 7.5 -29.875 7.945312 -30.523438 8.84375 -30.984375 C 10.875 -32.054688 13.054688 -32.875 15.390625 -33.4375 C 17.722656 -34.007812 20.0625 -34.296875 22.40625 -34.296875 Z M 19.609375 -15.875 C 16.828125 -15.875 14.632812 -15.394531 13.03125 -14.4375 C 11.425781 -13.488281 10.625 -11.972656 10.625 -9.890625 C 10.625 -8.128906 11.234375 -6.757812 12.453125 -5.78125 C 13.671875 -4.800781 15.378906 -4.3125 17.578125 -4.3125 C 22.390625 -4.3125 26.726562 -6.304688 30.59375 -10.296875 L 30.59375 -14.25 C 28.945312 -14.78125 27.179688 -15.179688 25.296875 -15.453125 C 23.410156 -15.734375 21.515625 -15.875 19.609375 -15.875 Z M 19.609375 -15.875 "/></g></g></g><g fill="#ff8f33" fill-opacity="1"><g transform="translate(550.366733, 108.081097)"><g><path d="M 33.34375 -34.296875 C 35.226562 -34.296875 36.992188 -33.8125 38.640625 -32.84375 C 39.609375 -32.257812 40.09375 -31.507812 40.09375 -30.59375 C 40.09375 -30.15625 39.984375 -29.644531 39.765625 -29.0625 C 39.253906 -27.6875 38.550781 -27 37.65625 -27 C 37.300781 -27 36.960938 -27.097656 36.640625 -27.296875 C 35.460938 -27.941406 34.195312 -28.265625 32.84375 -28.265625 C 30.664062 -28.265625 28.476562 -27.507812 26.28125 -26 C 24.082031 -24.488281 22.273438 -22.476562 20.859375 -19.96875 C 19.441406 -17.457031 18.734375 -14.789062 18.734375 -11.96875 L 18.734375 -4.921875 L 30.953125 -4.921875 C 31.773438 -4.921875 32.359375 -4.734375 32.703125 -4.359375 C 33.054688 -3.992188 33.234375 -3.363281 33.234375 -2.46875 C 33.234375 -1.570312 33.054688 -0.9375 32.703125 -0.5625 C 32.359375 -0.1875 31.773438 0 30.953125 0 L 7.609375 0 C 6.785156 0 6.195312 -0.1875 5.84375 -0.5625 C 5.5 -0.9375 5.328125 -1.570312 5.328125 -2.46875 C 5.328125 -3.363281 5.5 -3.992188 5.84375 -4.359375 C 6.195312 -4.734375 6.785156 -4.921875 7.609375 -4.921875 L 13.296875 -4.921875 L 13.296875 -28.5625 L 8.703125 -28.5625 C 7.878906 -28.5625 7.289062 -28.75 6.9375 -29.125 C 6.59375 -29.5 6.421875 -30.132812 6.421875 -31.03125 C 6.421875 -31.925781 6.59375 -32.5625 6.9375 -32.9375 C 7.289062 -33.3125 7.878906 -33.5 8.703125 -33.5 L 16.09375 -33.5 C 16.914062 -33.5 17.5 -33.3125 17.84375 -32.9375 C 18.195312 -32.5625 18.375 -31.925781 18.375 -31.03125 L 18.375 -23.703125 C 19.539062 -25.828125 20.941406 -27.6875 22.578125 -29.28125 C 24.222656 -30.882812 25.972656 -32.117188 27.828125 -32.984375 C 29.691406 -33.859375 31.53125 -34.296875 33.34375 -34.296875 Z M 33.34375 -34.296875 "/></g></g></g><g fill="#ff8f33" fill-opacity="1"><g transform="translate(594.873671, 108.081097)"><g><path d="M 22.578125 -34.296875 C 26.085938 -34.296875 29.078125 -33.585938 31.546875 -32.171875 C 34.023438 -30.753906 35.925781 -28.796875 37.25 -26.296875 C 38.582031 -23.796875 39.347656 -20.914062 39.546875 -17.65625 C 39.546875 -16.832031 39.367188 -16.25 39.015625 -15.90625 C 38.671875 -15.570312 38.085938 -15.40625 37.265625 -15.40625 L 11.015625 -15.40625 C 11.179688 -11.800781 12.25 -9.070312 14.21875 -7.21875 C 16.195312 -5.375 18.984375 -4.453125 22.578125 -4.453125 C 24.804688 -4.453125 27.003906 -4.734375 29.171875 -5.296875 C 31.347656 -5.867188 33.257812 -6.628906 34.90625 -7.578125 C 35.3125 -7.796875 35.6875 -7.90625 36.03125 -7.90625 C 36.875 -7.90625 37.5625 -7.265625 38.09375 -5.984375 C 38.3125 -5.472656 38.421875 -5.015625 38.421875 -4.609375 C 38.421875 -3.640625 37.890625 -2.890625 36.828125 -2.359375 C 34.960938 -1.410156 32.757812 -0.644531 30.21875 -0.0625 C 27.6875 0.507812 25.140625 0.796875 22.578125 0.796875 C 18.929688 0.796875 15.816406 0.0976562 13.234375 -1.296875 C 10.648438 -2.703125 8.679688 -4.722656 7.328125 -7.359375 C 5.972656 -9.992188 5.296875 -13.125 5.296875 -16.75 C 5.296875 -20.195312 6.03125 -23.25 7.5 -25.90625 C 8.976562 -28.570312 11.019531 -30.632812 13.625 -32.09375 C 16.238281 -33.5625 19.222656 -34.296875 22.578125 -34.296875 Z M 22.578125 -29.03125 C 19.609375 -29.03125 17.148438 -28.273438 15.203125 -26.765625 C 13.253906 -25.253906 11.976562 -23.160156 11.375 -20.484375 L 33.53125 -20.484375 C 33.019531 -23.253906 31.851562 -25.367188 30.03125 -26.828125 C 28.207031 -28.296875 25.722656 -29.03125 22.578125 -29.03125 Z M 22.578125 -29.03125 "/></g></g></g><g fill="#ff8f33" fill-opacity="1"><g transform="translate(639.38061, 108.081097)"><g><path d="M 18.921875 -46 C 19.335938 -46 19.660156 -45.890625 19.890625 -45.671875 C 20.117188 -45.453125 20.234375 -45.160156 20.234375 -44.796875 C 20.234375 -44.503906 20.132812 -44.144531 19.9375 -43.71875 L 11.96875 -27.4375 C 11.457031 -26.394531 10.5625 -25.875 9.28125 -25.875 C 8.582031 -25.875 8.019531 -26.039062 7.59375 -26.375 C 7.175781 -26.71875 6.96875 -27.179688 6.96875 -27.765625 C 6.96875 -27.890625 6.988281 -28.09375 7.03125 -28.375 L 10.703125 -44.546875 C 10.921875 -45.515625 11.546875 -46 12.578125 -46 Z M 36.671875 -46 C 37.085938 -46 37.410156 -45.890625 37.640625 -45.671875 C 37.867188 -45.453125 37.984375 -45.160156 37.984375 -44.796875 C 37.984375 -44.503906 37.882812 -44.144531 37.6875 -43.71875 L 29.71875 -27.4375 C 29.207031 -26.394531 28.3125 -25.875 27.03125 -25.875 C 26.332031 -25.875 25.769531 -26.039062 25.34375 -26.375 C 24.925781 -26.71875 24.71875 -27.179688 24.71875 -27.765625 C 24.71875 -27.890625 24.738281 -28.09375 24.78125 -28.375 L 28.453125 -44.546875 C 28.671875 -45.515625 29.296875 -46 30.328125 -46 Z M 36.671875 -46 "/></g></g></g><g fill="#0085ff" fill-opacity="1"><g transform="translate(683.894509, 108.081097)"><g><path d="M 38.28125 -23.640625 C 38.882812 -23.347656 39.316406 -23.003906 39.578125 -22.609375 C 39.847656 -22.222656 39.984375 -21.726562 39.984375 -21.125 C 39.984375 -20.519531 39.847656 -20.023438 39.578125 -19.640625 C 39.316406 -19.253906 38.882812 -18.914062 38.28125 -18.625 L 10.109375 -4.828125 C 9.628906 -4.578125 9.179688 -4.453125 8.765625 -4.453125 C 7.972656 -4.453125 7.3125 -4.972656 6.78125 -6.015625 C 6.488281 -6.597656 6.34375 -7.109375 6.34375 -7.546875 C 6.34375 -8.335938 6.835938 -8.972656 7.828125 -9.453125 L 32.1875 -21.125 L 7.828125 -32.796875 C 6.835938 -33.285156 6.34375 -33.925781 6.34375 -34.71875 C 6.34375 -35.15625 6.488281 -35.664062 6.78125 -36.25 C 7.3125 -37.289062 7.972656 -37.8125 8.765625 -37.8125 C 9.179688 -37.8125 9.628906 -37.6875 10.109375 -37.4375 Z M 38.28125 -23.640625 "/></g></g></g><g fill="#ffffff" fill-opacity="1"><g transform="translate(750.680899, 108.182719)"><g><path d="M 23.53125 -43.03125 C 26.550781 -43.03125 29.140625 -42.519531 31.296875 -41.5 C 33.460938 -40.488281 35.109375 -39.0625 36.234375 -37.21875 C 37.359375 -35.382812 37.921875 -33.25 37.921875 -30.8125 C 37.921875 -28.050781 37.023438 -25.71875 35.234375 -23.8125 C 33.441406 -21.90625 30.988281 -20.601562 27.875 -19.90625 C 29.226562 -19.375 30.351562 -18.515625 31.25 -17.328125 C 32 -16.335938 32.640625 -15.351562 33.171875 -14.375 C 33.703125 -13.394531 34.289062 -12.191406 34.9375 -10.765625 C 35.613281 -9.285156 36.132812 -8.210938 36.5 -7.546875 C 37.445312 -5.796875 38.535156 -4.921875 39.765625 -4.921875 L 40.78125 -4.921875 C 41.601562 -4.921875 42.1875 -4.734375 42.53125 -4.359375 C 42.882812 -3.992188 43.0625 -3.363281 43.0625 -2.46875 C 43.0625 -1.570312 42.882812 -0.9375 42.53125 -0.5625 C 42.1875 -0.1875 41.601562 0 40.78125 0 L 38.171875 0 C 36.722656 0 35.492188 -0.378906 34.484375 -1.140625 C 33.484375 -1.898438 32.515625 -3.195312 31.578125 -5.03125 C 31.046875 -6.101562 30.390625 -7.507812 29.609375 -9.25 C 28.890625 -10.84375 28.304688 -12.078125 27.859375 -12.953125 C 27.410156 -13.835938 26.875 -14.71875 26.25 -15.59375 C 25.519531 -16.601562 24.644531 -17.367188 23.625 -17.890625 C 22.613281 -18.410156 21.394531 -18.671875 19.96875 -18.671875 L 15.046875 -18.671875 L 15.046875 -4.921875 L 19.75 -4.921875 C 20.570312 -4.921875 21.15625 -4.734375 21.5 -4.359375 C 21.851562 -3.992188 22.03125 -3.363281 22.03125 -2.46875 C 22.03125 -1.570312 21.851562 -0.9375 21.5 -0.5625 C 21.15625 -0.1875 20.570312 0 19.75 0 L 5.1875 0 C 4.363281 0 3.773438 -0.1875 3.421875 -0.5625 C 3.078125 -0.9375 2.90625 -1.570312 2.90625 -2.46875 C 2.90625 -3.363281 3.078125 -3.992188 3.421875 -4.359375 C 3.773438 -4.734375 4.363281 -4.921875 5.1875 -4.921875 L 9.609375 -4.921875 L 9.609375 -38.09375 L 5.1875 -38.09375 C 4.363281 -38.09375 3.773438 -38.28125 3.421875 -38.65625 C 3.078125 -39.03125 2.90625 -39.664062 2.90625 -40.5625 C 2.90625 -41.457031 3.078125 -42.09375 3.421875 -42.46875 C 3.773438 -42.84375 4.363281 -43.03125 5.1875 -43.03125 Z M 15.046875 -23.59375 L 22.40625 -23.59375 C 28.925781 -23.59375 32.1875 -26 32.1875 -30.8125 C 32.1875 -33.132812 31.363281 -34.925781 29.71875 -36.1875 C 28.082031 -37.457031 25.765625 -38.09375 22.765625 -38.09375 L 15.046875 -38.09375 Z M 15.046875 -23.59375 "/></g></g></g><g fill="#ffffff" fill-opacity="1"><g transform="translate(795.186954, 108.182719)"><g><path d="M 22.40625 -34.296875 C 26.945312 -34.296875 30.351562 -33.28125 32.625 -31.25 C 34.894531 -29.21875 36.03125 -26.207031 36.03125 -22.21875 L 36.03125 -7.796875 C 36.03125 -5.878906 36.828125 -4.921875 38.421875 -4.921875 L 39.6875 -4.921875 C 40.507812 -4.921875 41.09375 -4.734375 41.4375 -4.359375 C 41.789062 -3.992188 41.96875 -3.363281 41.96875 -2.46875 C 41.96875 -1.570312 41.789062 -0.9375 41.4375 -0.5625 C 41.09375 -0.1875 40.507812 0 39.6875 0 L 37.375 0 C 35.800781 0 34.453125 -0.390625 33.328125 -1.171875 C 32.203125 -1.960938 31.472656 -3.117188 31.140625 -4.640625 C 29.160156 -2.898438 27.015625 -1.554688 24.703125 -0.609375 C 22.390625 0.328125 19.941406 0.796875 17.359375 0.796875 C 14.921875 0.796875 12.765625 0.378906 10.890625 -0.453125 C 9.015625 -1.285156 7.546875 -2.5 6.484375 -4.09375 C 5.421875 -5.6875 4.890625 -7.582031 4.890625 -9.78125 C 4.890625 -13.601562 6.253906 -16.425781 8.984375 -18.25 C 11.710938 -20.070312 15.242188 -20.984375 19.578125 -20.984375 C 23.421875 -20.984375 27.09375 -20.367188 30.59375 -19.140625 L 30.59375 -22.21875 C 30.59375 -24.5625 29.929688 -26.28125 28.609375 -27.375 C 27.296875 -28.476562 25.175781 -29.03125 22.25 -29.03125 C 20.4375 -29.03125 18.550781 -28.773438 16.59375 -28.265625 C 14.644531 -27.765625 12.785156 -27.066406 11.015625 -26.171875 C 10.609375 -25.953125 10.234375 -25.84375 9.890625 -25.84375 C 9.097656 -25.84375 8.4375 -26.421875 7.90625 -27.578125 C 7.632812 -28.160156 7.5 -28.644531 7.5 -29.03125 C 7.5 -29.875 7.945312 -30.523438 8.84375 -30.984375 C 10.875 -32.054688 13.054688 -32.875 15.390625 -33.4375 C 17.722656 -34.007812 20.0625 -34.296875 22.40625 -34.296875 Z M 19.609375 -15.875 C 16.828125 -15.875 14.632812 -15.394531 13.03125 -14.4375 C 11.425781 -13.488281 10.625 -11.972656 10.625 -9.890625 C 10.625 -8.128906 11.234375 -6.757812 12.453125 -5.78125 C 13.671875 -4.800781 15.378906 -4.3125 17.578125 -4.3125 C 22.390625 -4.3125 26.726562 -6.304688 30.59375 -10.296875 L 30.59375 -14.25 C 28.945312 -14.78125 27.179688 -15.179688 25.296875 -15.453125 C 23.410156 -15.734375 21.515625 -15.875 19.609375 -15.875 Z M 19.609375 -15.875 "/></g></g></g><g fill="#ffffff" fill-opacity="1"><g transform="translate(839.693009, 108.182719)"><g><path d="M 20.265625 -34.296875 C 22.628906 -34.296875 24.8125 -33.757812 26.8125 -32.6875 C 28.820312 -31.625 30.585938 -30.101562 32.109375 -28.125 L 32.109375 -31.03125 C 32.109375 -31.925781 32.285156 -32.5625 32.640625 -32.9375 C 32.992188 -33.3125 33.582031 -33.5 34.40625 -33.5 L 40.15625 -33.5 C 40.976562 -33.5 41.566406 -33.3125 41.921875 -32.9375 C 42.273438 -32.5625 42.453125 -31.925781 42.453125 -31.03125 C 42.453125 -30.132812 42.273438 -29.5 41.921875 -29.125 C 41.566406 -28.75 40.976562 -28.5625 40.15625 -28.5625 L 37.1875 -28.5625 L 37.1875 1.09375 C 37.1875 3.96875 36.578125 6.4375 35.359375 8.5 C 34.140625 10.5625 32.367188 12.132812 30.046875 13.21875 C 27.722656 14.3125 24.929688 14.859375 21.671875 14.859375 C 19.359375 14.859375 17.015625 14.660156 14.640625 14.265625 C 12.273438 13.867188 10.066406 13.296875 8.015625 12.546875 C 7.066406 12.203125 6.59375 11.5625 6.59375 10.625 C 6.59375 10.238281 6.691406 9.753906 6.890625 9.171875 C 7.328125 7.835938 8.015625 7.171875 8.953125 7.171875 C 9.222656 7.171875 9.488281 7.222656 9.75 7.328125 C 11.632812 8.003906 13.613281 8.535156 15.6875 8.921875 C 17.769531 9.304688 19.765625 9.5 21.671875 9.5 C 25.003906 9.5 27.515625 8.707031 29.203125 7.125 C 30.898438 5.539062 31.75 3.367188 31.75 0.609375 L 31.75 -6.671875 C 28.757812 -2.898438 24.929688 -1.015625 20.265625 -1.015625 C 17.265625 -1.015625 14.578125 -1.679688 12.203125 -3.015625 C 9.835938 -4.359375 7.976562 -6.285156 6.625 -8.796875 C 5.28125 -11.316406 4.609375 -14.269531 4.609375 -17.65625 C 4.609375 -21.039062 5.28125 -23.988281 6.625 -26.5 C 7.976562 -29.007812 9.835938 -30.9375 12.203125 -32.28125 C 14.578125 -33.625 17.265625 -34.296875 20.265625 -34.296875 Z M 20.625 -28.921875 C 18.476562 -28.921875 16.628906 -28.441406 15.078125 -27.484375 C 13.535156 -26.535156 12.359375 -25.207031 11.546875 -23.5 C 10.734375 -21.800781 10.328125 -19.851562 10.328125 -17.65625 C 10.328125 -15.457031 10.734375 -13.503906 11.546875 -11.796875 C 12.359375 -10.097656 13.535156 -8.769531 15.078125 -7.8125 C 16.628906 -6.851562 18.476562 -6.375 20.625 -6.375 C 22.769531 -6.375 24.679688 -6.820312 26.359375 -7.71875 C 28.046875 -8.613281 29.363281 -9.910156 30.3125 -11.609375 C 31.269531 -13.316406 31.75 -15.332031 31.75 -17.65625 C 31.75 -19.96875 31.269531 -21.976562 30.3125 -23.6875 C 29.363281 -25.394531 28.046875 -26.691406 26.359375 -27.578125 C 24.679688 -28.472656 22.769531 -28.921875 20.625 -28.921875 Z M 20.625 -28.921875 "/></g></g></g><g fill="#ffffff" fill-opacity="1"><g transform="translate(884.199064, 108.182719)"><g><path d="M 22.578125 -34.296875 C 26.085938 -34.296875 29.078125 -33.585938 31.546875 -32.171875 C 34.023438 -30.753906 35.925781 -28.796875 37.25 -26.296875 C 38.582031 -23.796875 39.347656 -20.914062 39.546875 -17.65625 C 39.546875 -16.832031 39.367188 -16.25 39.015625 -15.90625 C 38.671875 -15.570312 38.085938 -15.40625 37.265625 -15.40625 L 11.015625 -15.40625 C 11.179688 -11.800781 12.25 -9.070312 14.21875 -7.21875 C 16.195312 -5.375 18.984375 -4.453125 22.578125 -4.453125 C 24.804688 -4.453125 27.003906 -4.734375 29.171875 -5.296875 C 31.347656 -5.867188 33.257812 -6.628906 34.90625 -7.578125 C 35.3125 -7.796875 35.6875 -7.90625 36.03125 -7.90625 C 36.875 -7.90625 37.5625 -7.265625 38.09375 -5.984375 C 38.3125 -5.472656 38.421875 -5.015625 38.421875 -4.609375 C 38.421875 -3.640625 37.890625 -2.890625 36.828125 -2.359375 C 34.960938 -1.410156 32.757812 -0.644531 30.21875 -0.0625 C 27.6875 0.507812 25.140625 0.796875 22.578125 0.796875 C 18.929688 0.796875 15.816406 0.0976562 13.234375 -1.296875 C 10.648438 -2.703125 8.679688 -4.722656 7.328125 -7.359375 C 5.972656 -9.992188 5.296875 -13.125 5.296875 -16.75 C 5.296875 -20.195312 6.03125 -23.25 7.5 -25.90625 C 8.976562 -28.570312 11.019531 -30.632812 13.625 -32.09375 C 16.238281 -33.5625 19.222656 -34.296875 22.578125 -34.296875 Z M 22.578125 -29.03125 C 19.609375 -29.03125 17.148438 -28.273438 15.203125 -26.765625 C 13.253906 -25.253906 11.976562 -23.160156 11.375 -20.484375 L 33.53125 -20.484375 C 33.019531 -23.253906 31.851562 -25.367188 30.03125 -26.828125 C 28.207031 -28.296875 25.722656 -29.03125 22.578125 -29.03125 Z M 22.578125 -29.03125 "/></g></g></g><g fill="#ffffff" fill-opacity="1"><g transform="translate(928.705119, 108.182719)"><g/></g></g><g fill="#ffffff" fill-opacity="1"><g transform="translate(973.211174, 108.182719)"><g><path d="M 22.25 -43.03125 C 26.050781 -43.03125 29.390625 -42.164062 32.265625 -40.4375 C 35.140625 -38.707031 37.367188 -36.21875 38.953125 -32.96875 C 40.535156 -29.71875 41.328125 -25.894531 41.328125 -21.5 C 41.328125 -17.09375 40.535156 -13.269531 38.953125 -10.03125 C 37.367188 -6.800781 35.140625 -4.320312 32.265625 -2.59375 C 29.390625 -0.863281 26.050781 0 22.25 0 L 5.1875 0 C 4.363281 0 3.773438 -0.1875 3.421875 -0.5625 C 3.078125 -0.9375 2.90625 -1.570312 2.90625 -2.46875 C 2.90625 -3.363281 3.078125 -3.992188 3.421875 -4.359375 C 3.773438 -4.734375 4.363281 -4.921875 5.1875 -4.921875 L 9.25 -4.921875 L 9.25 -38.09375 L 5.1875 -38.09375 C 4.363281 -38.09375 3.773438 -38.28125 3.421875 -38.65625 C 3.078125 -39.03125 2.90625 -39.664062 2.90625 -40.5625 C 2.90625 -41.457031 3.078125 -42.09375 3.421875 -42.46875 C 3.773438 -42.84375 4.363281 -43.03125 5.1875 -43.03125 Z M 14.6875 -4.921875 L 21.421875 -4.921875 C 24.296875 -4.921875 26.796875 -5.554688 28.921875 -6.828125 C 31.046875 -8.097656 32.6875 -9.972656 33.84375 -12.453125 C 35.007812 -14.929688 35.59375 -17.945312 35.59375 -21.5 C 35.59375 -25.050781 35.007812 -28.0625 33.84375 -30.53125 C 32.6875 -33.007812 31.046875 -34.890625 28.921875 -36.171875 C 26.796875 -37.453125 24.296875 -38.09375 21.421875 -38.09375 L 14.6875 -38.09375 Z M 14.6875 -4.921875 "/></g></g></g><g fill="#ffffff" fill-opacity="1"><g transform="translate(1017.717229, 108.182719)"><g><path d="M 22.25 -34.296875 C 25.5625 -34.296875 28.546875 -33.546875 31.203125 -32.046875 C 33.867188 -30.546875 35.957031 -28.457031 37.46875 -25.78125 C 38.976562 -23.113281 39.734375 -20.101562 39.734375 -16.75 C 39.734375 -13.382812 38.976562 -10.367188 37.46875 -7.703125 C 35.957031 -5.035156 33.867188 -2.953125 31.203125 -1.453125 C 28.546875 0.046875 25.5625 0.796875 22.25 0.796875 C 18.945312 0.796875 15.960938 0.046875 13.296875 -1.453125 C 10.640625 -2.953125 8.554688 -5.035156 7.046875 -7.703125 C 5.535156 -10.367188 4.78125 -13.382812 4.78125 -16.75 C 4.78125 -20.101562 5.535156 -23.113281 7.046875 -25.78125 C 8.554688 -28.457031 10.640625 -30.546875 13.296875 -32.046875 C 15.960938 -33.546875 18.945312 -34.296875 22.25 -34.296875 Z M 22.25 -28.921875 C 19.90625 -28.921875 17.84375 -28.40625 16.0625 -27.375 C 14.289062 -26.351562 12.921875 -24.914062 11.953125 -23.0625 C 10.992188 -21.21875 10.515625 -19.113281 10.515625 -16.75 C 10.515625 -14.375 10.992188 -12.257812 11.953125 -10.40625 C 12.921875 -8.5625 14.289062 -7.125 16.0625 -6.09375 C 17.84375 -5.070312 19.90625 -4.5625 22.25 -4.5625 C 24.59375 -4.5625 26.648438 -5.070312 28.421875 -6.09375 C 30.203125 -7.125 31.578125 -8.5625 32.546875 -10.40625 C 33.515625 -12.257812 34 -14.375 34 -16.75 C 34 -19.113281 33.515625 -21.21875 32.546875 -23.0625 C 31.578125 -24.914062 30.203125 -26.351562 28.421875 -27.375 C 26.648438 -28.40625 24.59375 -28.921875 22.25 -28.921875 Z M 22.25 -28.921875 "/></g></g></g><g fill="#ffffff" fill-opacity="1"><g transform="translate(1062.223284, 108.182719)"><g><path d="M 26.359375 -34.296875 C 28.554688 -34.296875 30.460938 -33.816406 32.078125 -32.859375 C 33.691406 -31.898438 34.9375 -30.523438 35.8125 -28.734375 C 36.6875 -26.953125 37.125 -24.863281 37.125 -22.46875 L 37.125 -4.921875 L 40.09375 -4.921875 C 40.914062 -4.921875 41.5 -4.734375 41.84375 -4.359375 C 42.195312 -3.992188 42.375 -3.363281 42.375 -2.46875 C 42.375 -1.570312 42.195312 -0.9375 41.84375 -0.5625 C 41.5 -0.1875 40.914062 0 40.09375 0 L 28.34375 0 C 27.519531 0 26.929688 -0.1875 26.578125 -0.5625 C 26.234375 -0.9375 26.0625 -1.570312 26.0625 -2.46875 C 26.0625 -3.363281 26.234375 -3.992188 26.578125 -4.359375 C 26.929688 -4.734375 27.519531 -4.921875 28.34375 -4.921875 L 31.6875 -4.921875 L 31.6875 -21.921875 C 31.6875 -24.078125 31.1875 -25.78125 30.1875 -27.03125 C 29.195312 -28.289062 27.738281 -28.921875 25.8125 -28.921875 C 23.757812 -28.921875 21.84375 -28.328125 20.0625 -27.140625 C 18.289062 -25.960938 16.867188 -24.332031 15.796875 -22.25 C 14.734375 -20.175781 14.203125 -17.859375 14.203125 -15.296875 L 14.203125 -4.921875 L 17.546875 -4.921875 C 18.367188 -4.921875 18.953125 -4.734375 19.296875 -4.359375 C 19.648438 -3.992188 19.828125 -3.363281 19.828125 -2.46875 C 19.828125 -1.570312 19.648438 -0.9375 19.296875 -0.5625 C 18.953125 -0.1875 18.367188 0 17.546875 0 L 5.796875 0 C 4.972656 0 4.382812 -0.1875 4.03125 -0.5625 C 3.6875 -0.9375 3.515625 -1.570312 3.515625 -2.46875 C 3.515625 -3.363281 3.6875 -3.992188 4.03125 -4.359375 C 4.382812 -4.734375 4.972656 -4.921875 5.796875 -4.921875 L 8.765625 -4.921875 L 8.765625 -28.5625 L 5.078125 -28.5625 C 4.253906 -28.5625 3.664062 -28.75 3.3125 -29.125 C 2.96875 -29.5 2.796875 -30.132812 2.796875 -31.03125 C 2.796875 -31.925781 2.96875 -32.5625 3.3125 -32.9375 C 3.664062 -33.3125 4.253906 -33.5 5.078125 -33.5 L 11.5625 -33.5 C 12.382812 -33.5 12.96875 -33.3125 13.3125 -32.9375 C 13.664062 -32.5625 13.84375 -31.925781 13.84375 -31.03125 L 13.84375 -26.671875 C 15.4375 -29.140625 17.300781 -31.023438 19.4375 -32.328125 C 21.582031 -33.640625 23.890625 -34.296875 26.359375 -34.296875 Z M 26.359375 -34.296875 "/></g></g></g><g fill="#ffffff" fill-opacity="1"><g transform="translate(1106.729339, 108.182719)"><g><path d="M 39.734375 -4.921875 C 40.546875 -4.921875 41.128906 -4.734375 41.484375 -4.359375 C 41.835938 -3.992188 42.015625 -3.363281 42.015625 -2.46875 C 42.015625 -1.570312 41.835938 -0.9375 41.484375 -0.5625 C 41.128906 -0.1875 40.546875 0 39.734375 0 L 27.984375 0 C 27.160156 0 26.570312 -0.1875 26.21875 -0.5625 C 25.875 -0.9375 25.703125 -1.570312 25.703125 -2.46875 C 25.703125 -3.363281 25.875 -3.992188 26.21875 -4.359375 C 26.570312 -4.734375 27.160156 -4.921875 27.984375 -4.921875 L 30.59375 -4.921875 L 21.5 -15.734375 L 14.890625 -9.9375 L 14.890625 -4.921875 L 17.546875 -4.921875 C 18.367188 -4.921875 18.953125 -4.734375 19.296875 -4.359375 C 19.648438 -3.992188 19.828125 -3.363281 19.828125 -2.46875 C 19.828125 -1.570312 19.648438 -0.9375 19.296875 -0.5625 C 18.953125 -0.1875 18.367188 0 17.546875 0 L 5.4375 0 C 4.613281 0 4.023438 -0.1875 3.671875 -0.5625 C 3.328125 -0.9375 3.15625 -1.570312 3.15625 -2.46875 C 3.15625 -3.363281 3.328125 -3.992188 3.671875 -4.359375 C 4.023438 -4.734375 4.613281 -4.921875 5.4375 -4.921875 L 9.453125 -4.921875 L 9.453125 -42.625 L 4.71875 -42.625 C 3.894531 -42.625 3.304688 -42.8125 2.953125 -43.1875 C 2.597656 -43.5625 2.421875 -44.195312 2.421875 -45.09375 C 2.421875 -45.988281 2.597656 -46.625 2.953125 -47 C 3.304688 -47.375 3.894531 -47.5625 4.71875 -47.5625 L 12.609375 -47.5625 C 13.429688 -47.5625 14.015625 -47.375 14.359375 -47 C 14.710938 -46.625 14.890625 -45.988281 14.890625 -45.09375 L 14.890625 -16.390625 L 28.703125 -28.5625 L 26.140625 -28.5625 C 25.316406 -28.5625 24.726562 -28.75 24.375 -29.125 C 24.019531 -29.5 23.84375 -30.132812 23.84375 -31.03125 C 23.84375 -31.925781 24.019531 -32.5625 24.375 -32.9375 C 24.726562 -33.3125 25.316406 -33.5 26.140625 -33.5 L 38.234375 -33.5 C 39.054688 -33.5 39.644531 -33.3125 40 -32.9375 C 40.351562 -32.5625 40.53125 -31.925781 40.53125 -31.03125 C 40.53125 -30.132812 40.351562 -29.5 40 -29.125 C 39.644531 -28.75 39.054688 -28.5625 38.234375 -28.5625 L 36.109375 -28.5625 L 25.453125 -19.171875 L 37.625 -4.921875 Z M 39.734375 -4.921875 "/></g></g></g><g fill="#ffffff" fill-opacity="1"><g transform="translate(1151.235394, 108.182719)"><g><path d="M 22.578125 -34.296875 C 26.085938 -34.296875 29.078125 -33.585938 31.546875 -32.171875 C 34.023438 -30.753906 35.925781 -28.796875 37.25 -26.296875 C 38.582031 -23.796875 39.347656 -20.914062 39.546875 -17.65625 C 39.546875 -16.832031 39.367188 -16.25 39.015625 -15.90625 C 38.671875 -15.570312 38.085938 -15.40625 37.265625 -15.40625 L 11.015625 -15.40625 C 11.179688 -11.800781 12.25 -9.070312 14.21875 -7.21875 C 16.195312 -5.375 18.984375 -4.453125 22.578125 -4.453125 C 24.804688 -4.453125 27.003906 -4.734375 29.171875 -5.296875 C 31.347656 -5.867188 33.257812 -6.628906 34.90625 -7.578125 C 35.3125 -7.796875 35.6875 -7.90625 36.03125 -7.90625 C 36.875 -7.90625 37.5625 -7.265625 38.09375 -5.984375 C 38.3125 -5.472656 38.421875 -5.015625 38.421875 -4.609375 C 38.421875 -3.640625 37.890625 -2.890625 36.828125 -2.359375 C 34.960938 -1.410156 32.757812 -0.644531 30.21875 -0.0625 C 27.6875 0.507812 25.140625 0.796875 22.578125 0.796875 C 18.929688 0.796875 15.816406 0.0976562 13.234375 -1.296875 C 10.648438 -2.703125 8.679688 -4.722656 7.328125 -7.359375 C 5.972656 -9.992188 5.296875 -13.125 5.296875 -16.75 C 5.296875 -20.195312 6.03125 -23.25 7.5 -25.90625 C 8.976562 -28.570312 11.019531 -30.632812 13.625 -32.09375 C 16.238281 -33.5625 19.222656 -34.296875 22.578125 -34.296875 Z M 22.578125 -29.03125 C 19.609375 -29.03125 17.148438 -28.273438 15.203125 -26.765625 C 13.253906 -25.253906 11.976562 -23.160156 11.375 -20.484375 L 33.53125 -20.484375 C 33.019531 -23.253906 31.851562 -25.367188 30.03125 -26.828125 C 28.207031 -28.296875 25.722656 -29.03125 22.578125 -29.03125 Z M 22.578125 -29.03125 "/></g></g></g><g fill="#ffffff" fill-opacity="1"><g transform="translate(1195.741449, 108.182719)"><g><path d="M 40.421875 -33.5 C 41.234375 -33.5 41.816406 -33.3125 42.171875 -32.9375 C 42.523438 -32.5625 42.703125 -31.925781 42.703125 -31.03125 C 42.703125 -30.132812 42.523438 -29.5 42.171875 -29.125 C 41.816406 -28.75 41.234375 -28.5625 40.421875 -28.5625 L 38.171875 -28.5625 L 23.34375 1.8125 C 21.769531 5.03125 20.234375 7.554688 18.734375 9.390625 C 17.242188 11.222656 15.5625 12.566406 13.6875 13.421875 C 11.8125 14.285156 9.53125 14.765625 6.84375 14.859375 C 6 14.878906 5.347656 14.664062 4.890625 14.21875 C 4.429688 13.78125 4.203125 12.992188 4.203125 11.859375 C 4.203125 10.285156 4.84375 9.460938 6.125 9.390625 C 8.445312 9.265625 10.289062 8.875 11.65625 8.21875 C 13.019531 7.570312 14.273438 6.457031 15.421875 4.875 C 16.566406 3.289062 17.972656 0.820312 19.640625 -2.53125 L 6.375 -28.5625 L 4.09375 -28.5625 C 3.269531 -28.5625 2.679688 -28.75 2.328125 -29.125 C 1.984375 -29.5 1.8125 -30.132812 1.8125 -31.03125 C 1.8125 -31.925781 1.984375 -32.5625 2.328125 -32.9375 C 2.679688 -33.3125 3.269531 -33.5 4.09375 -33.5 L 16.921875 -33.5 C 17.742188 -33.5 18.332031 -33.3125 18.6875 -32.9375 C 19.039062 -32.5625 19.21875 -31.925781 19.21875 -31.03125 C 19.21875 -30.132812 19.039062 -29.5 18.6875 -29.125 C 18.332031 -28.75 17.742188 -28.5625 16.921875 -28.5625 L 12.28125 -28.5625 L 22.515625 -8.1875 L 32.265625 -28.5625 L 29.03125 -28.5625 C 28.207031 -28.5625 27.617188 -28.75 27.265625 -29.125 C 26.921875 -29.5 26.75 -30.132812 26.75 -31.03125 C 26.75 -31.925781 26.921875 -32.5625 27.265625 -32.9375 C 27.617188 -33.3125 28.207031 -33.5 29.03125 -33.5 Z M 40.421875 -33.5 "/></g></g></g><path stroke-linecap="round" transform="matrix(0.749999, -0.00122209, 0.00122209, 0.749999, 193.897104, 167.918657)" fill="none" stroke-linejoin="miter" d="M 3.002104 2.998769 L 708.325999 3.002225 " stroke="#ffffff" stroke-width="6" stroke-opacity="1" stroke-miterlimit="4"/><path stroke-linecap="round" transform="matrix(0, -0.75, 0.75, 0, 191.649434, 169.298029)" fill="none" stroke-linejoin="miter" d="M 3.001538 2.998671 L 40.454666 2.998671 " stroke="#ffffff" stroke-width="6" stroke-opacity="1" stroke-miterlimit="4"/><path stroke-linecap="round" transform="matrix(0.0129824, -0.749888, 0.749888, 0.0129824, 724.575211, 169.256645)" fill="none" stroke-linejoin="miter" d="M 2.998728 2.999303 L 40.462722 3.001848 " stroke="#ffffff" stroke-width="6" stroke-opacity="1" stroke-miterlimit="4"/><g fill="#ffffff" fill-opacity="1"><g transform="translate(309.653208, 229.832309)"><g><path d="M 16.453125 -25.796875 C 20.453125 -25.796875 23.34375 -24.929688 25.125 -23.203125 C 26.90625 -21.484375 27.796875 -19.015625 27.796875 -15.796875 L 27.796875 -7.90625 C 27.796875 -7.175781 27.945312 -6.609375 28.25 -6.203125 C 28.5625 -5.796875 29.007812 -5.59375 29.59375 -5.59375 L 30.4375 -5.59375 C 30.875 -5.59375 31.207031 -5.515625 31.4375 -5.359375 C 31.675781 -5.203125 31.851562 -4.921875 31.96875 -4.515625 C 32.09375 -4.117188 32.15625 -3.539062 32.15625 -2.78125 C 32.15625 -2.019531 32.09375 -1.4375 31.96875 -1.03125 C 31.851562 -0.632812 31.675781 -0.363281 31.4375 -0.21875 C 31.207031 -0.0703125 30.875 0 30.4375 0 L 27.390625 0 C 26.253906 0 25.253906 -0.226562 24.390625 -0.6875 C 23.535156 -1.15625 22.878906 -1.890625 22.421875 -2.890625 C 20.984375 -1.785156 19.460938 -0.925781 17.859375 -0.3125 C 16.265625 0.289062 14.617188 0.59375 12.921875 0.59375 C 10.867188 0.59375 9.097656 0.242188 7.609375 -0.453125 C 6.117188 -1.148438 4.976562 -2.148438 4.1875 -3.453125 C 3.394531 -4.753906 3 -6.285156 3 -8.046875 C 3 -10.585938 3.898438 -12.554688 5.703125 -13.953125 C 7.503906 -15.359375 10.019531 -16.0625 13.25 -16.0625 C 15.675781 -16.0625 18.25 -15.789062 20.96875 -15.25 L 20.96875 -16.03125 C 20.96875 -17.25 20.585938 -18.148438 19.828125 -18.734375 C 19.066406 -19.316406 17.722656 -19.609375 15.796875 -19.609375 C 14.722656 -19.609375 13.523438 -19.472656 12.203125 -19.203125 C 10.890625 -18.941406 9.585938 -18.597656 8.296875 -18.171875 C 7.984375 -18.078125 7.71875 -18.03125 7.5 -18.03125 C 7.039062 -18.03125 6.632812 -18.195312 6.28125 -18.53125 C 5.925781 -18.863281 5.601562 -19.429688 5.3125 -20.234375 C 5.039062 -21.035156 4.90625 -21.691406 4.90625 -22.203125 C 4.90625 -23.128906 5.328125 -23.75 6.171875 -24.0625 C 7.785156 -24.632812 9.5 -25.066406 11.3125 -25.359375 C 13.132812 -25.648438 14.847656 -25.796875 16.453125 -25.796875 Z M 13.9375 -10.453125 C 12.664062 -10.453125 11.695312 -10.222656 11.03125 -9.765625 C 10.363281 -9.304688 10.03125 -8.640625 10.03125 -7.765625 C 10.03125 -6.910156 10.351562 -6.257812 11 -5.8125 C 11.644531 -5.375 12.578125 -5.15625 13.796875 -5.15625 C 15.054688 -5.15625 16.296875 -5.40625 17.515625 -5.90625 C 18.742188 -6.40625 19.894531 -7.09375 20.96875 -7.96875 L 20.96875 -9.703125 C 18.570312 -10.203125 16.226562 -10.453125 13.9375 -10.453125 Z M 13.9375 -10.453125 "/></g></g></g><g fill="#ffffff" fill-opacity="1"><g transform="translate(343.142326, 229.832309)"><g><path d="M 13.234375 -32.96875 C 14.085938 -32.96875 14.742188 -32.910156 15.203125 -32.796875 C 15.671875 -32.679688 15.992188 -32.503906 16.171875 -32.265625 C 16.359375 -32.023438 16.453125 -31.6875 16.453125 -31.25 L 16.453125 -23.5625 L 26.5625 -23.5625 C 27.195312 -23.5625 27.640625 -23.351562 27.890625 -22.9375 C 28.148438 -22.519531 28.28125 -21.75 28.28125 -20.625 C 28.28125 -19.488281 28.148438 -18.71875 27.890625 -18.3125 C 27.640625 -17.90625 27.195312 -17.703125 26.5625 -17.703125 L 16.453125 -17.703125 L 16.453125 -10.125 C 16.453125 -7.101562 17.625 -5.59375 19.96875 -5.59375 C 20.800781 -5.59375 21.773438 -5.773438 22.890625 -6.140625 C 24.015625 -6.515625 25.320312 -7.039062 26.8125 -7.71875 C 27.207031 -7.882812 27.523438 -7.96875 27.765625 -7.96875 C 28.148438 -7.96875 28.503906 -7.804688 28.828125 -7.484375 C 29.160156 -7.171875 29.46875 -6.648438 29.75 -5.921875 C 30.082031 -5.097656 30.25 -4.429688 30.25 -3.921875 C 30.25 -3.523438 30.148438 -3.191406 29.953125 -2.921875 C 29.765625 -2.660156 29.484375 -2.429688 29.109375 -2.234375 C 25.359375 -0.347656 22.109375 0.59375 19.359375 0.59375 C 16.203125 0.59375 13.789062 -0.285156 12.125 -2.046875 C 10.457031 -3.804688 9.625 -6.378906 9.625 -9.765625 L 9.625 -17.703125 L 4.359375 -17.703125 C 3.722656 -17.703125 3.273438 -17.90625 3.015625 -18.3125 C 2.765625 -18.71875 2.640625 -19.488281 2.640625 -20.625 C 2.640625 -21.75 2.765625 -22.519531 3.015625 -22.9375 C 3.273438 -23.351562 3.722656 -23.5625 4.359375 -23.5625 L 9.625 -23.5625 L 9.625 -31.25 C 9.625 -31.875 9.898438 -32.316406 10.453125 -32.578125 C 11.015625 -32.835938 11.941406 -32.96875 13.234375 -32.96875 Z M 13.234375 -32.96875 "/></g></g></g><g fill="#ffffff" fill-opacity="1"><g transform="translate(376.631444, 229.832309)"><g><path d="M 13.234375 -32.96875 C 14.085938 -32.96875 14.742188 -32.910156 15.203125 -32.796875 C 15.671875 -32.679688 15.992188 -32.503906 16.171875 -32.265625 C 16.359375 -32.023438 16.453125 -31.6875 16.453125 -31.25 L 16.453125 -23.5625 L 26.5625 -23.5625 C 27.195312 -23.5625 27.640625 -23.351562 27.890625 -22.9375 C 28.148438 -22.519531 28.28125 -21.75 28.28125 -20.625 C 28.28125 -19.488281 28.148438 -18.71875 27.890625 -18.3125 C 27.640625 -17.90625 27.195312 -17.703125 26.5625 -17.703125 L 16.453125 -17.703125 L 16.453125 -10.125 C 16.453125 -7.101562 17.625 -5.59375 19.96875 -5.59375 C 20.800781 -5.59375 21.773438 -5.773438 22.890625 -6.140625 C 24.015625 -6.515625 25.320312 -7.039062 26.8125 -7.71875 C 27.207031 -7.882812 27.523438 -7.96875 27.765625 -7.96875 C 28.148438 -7.96875 28.503906 -7.804688 28.828125 -7.484375 C 29.160156 -7.171875 29.46875 -6.648438 29.75 -5.921875 C 30.082031 -5.097656 30.25 -4.429688 30.25 -3.921875 C 30.25 -3.523438 30.148438 -3.191406 29.953125 -2.921875 C 29.765625 -2.660156 29.484375 -2.429688 29.109375 -2.234375 C 25.359375 -0.347656 22.109375 0.59375 19.359375 0.59375 C 16.203125 0.59375 13.789062 -0.285156 12.125 -2.046875 C 10.457031 -3.804688 9.625 -6.378906 9.625 -9.765625 L 9.625 -17.703125 L 4.359375 -17.703125 C 3.722656 -17.703125 3.273438 -17.90625 3.015625 -18.3125 C 2.765625 -18.71875 2.640625 -19.488281 2.640625 -20.625 C 2.640625 -21.75 2.765625 -22.519531 3.015625 -22.9375 C 3.273438 -23.351562 3.722656 -23.5625 4.359375 -23.5625 L 9.625 -23.5625 L 9.625 -31.25 C 9.625 -31.875 9.898438 -32.316406 10.453125 -32.578125 C 11.015625 -32.835938 11.941406 -32.96875 13.234375 -32.96875 Z M 13.234375 -32.96875 "/></g></g></g><g fill="#ffffff" fill-opacity="1"><g transform="translate(410.120562, 229.832309)"><g><path d="M 25.28125 -25.796875 C 26.832031 -25.796875 28.285156 -25.289062 29.640625 -24.28125 C 30.441406 -23.695312 30.84375 -22.929688 30.84375 -21.984375 C 30.84375 -21.378906 30.679688 -20.671875 30.359375 -19.859375 C 30.023438 -19.035156 29.65625 -18.414062 29.25 -18 C 28.84375 -17.582031 28.410156 -17.375 27.953125 -17.375 C 27.703125 -17.375 27.429688 -17.445312 27.140625 -17.59375 C 26.117188 -18.15625 25.0625 -18.4375 23.96875 -18.4375 C 22.570312 -18.4375 21.265625 -17.988281 20.046875 -17.09375 C 18.828125 -16.207031 17.847656 -14.984375 17.109375 -13.421875 C 16.378906 -11.859375 16.015625 -10.113281 16.015625 -8.1875 L 16.015625 -5.59375 L 23.84375 -5.59375 C 24.28125 -5.59375 24.613281 -5.515625 24.84375 -5.359375 C 25.082031 -5.203125 25.257812 -4.921875 25.375 -4.515625 C 25.5 -4.117188 25.5625 -3.539062 25.5625 -2.78125 C 25.5625 -2.019531 25.5 -1.4375 25.375 -1.03125 C 25.257812 -0.632812 25.082031 -0.363281 24.84375 -0.21875 C 24.613281 -0.0703125 24.28125 0 23.84375 0 L 5.1875 0 C 4.75 0 4.410156 -0.0703125 4.171875 -0.21875 C 3.929688 -0.363281 3.753906 -0.632812 3.640625 -1.03125 C 3.523438 -1.4375 3.46875 -2.019531 3.46875 -2.78125 C 3.46875 -3.539062 3.523438 -4.117188 3.640625 -4.515625 C 3.753906 -4.921875 3.929688 -5.203125 4.171875 -5.359375 C 4.410156 -5.515625 4.75 -5.59375 5.1875 -5.59375 L 9.1875 -5.59375 L 9.1875 -19.609375 L 6 -19.609375 C 5.5625 -19.609375 5.222656 -19.679688 4.984375 -19.828125 C 4.753906 -19.972656 4.578125 -20.242188 4.453125 -20.640625 C 4.335938 -21.046875 4.28125 -21.628906 4.28125 -22.390625 C 4.28125 -23.148438 4.335938 -23.726562 4.453125 -24.125 C 4.578125 -24.53125 4.753906 -24.8125 4.984375 -24.96875 C 5.222656 -25.125 5.5625 -25.203125 6 -25.203125 L 13.46875 -25.203125 C 14.09375 -25.203125 14.535156 -25.066406 14.796875 -24.796875 C 15.054688 -24.535156 15.1875 -24.097656 15.1875 -23.484375 L 15.1875 -17.5625 C 16.550781 -20.195312 18.117188 -22.226562 19.890625 -23.65625 C 21.671875 -25.082031 23.46875 -25.796875 25.28125 -25.796875 Z M 25.28125 -25.796875 "/></g></g></g><g fill="#ffffff" fill-opacity="1"><g transform="translate(443.60968, 229.832309)"><g><path d="M 18.8125 -25.203125 C 19.4375 -25.203125 19.878906 -25.066406 20.140625 -24.796875 C 20.398438 -24.535156 20.53125 -24.097656 20.53125 -23.484375 L 20.53125 -5.59375 L 28.203125 -5.59375 C 28.640625 -5.59375 28.972656 -5.515625 29.203125 -5.359375 C 29.441406 -5.203125 29.617188 -4.921875 29.734375 -4.515625 C 29.859375 -4.117188 29.921875 -3.539062 29.921875 -2.78125 C 29.921875 -2.019531 29.859375 -1.4375 29.734375 -1.03125 C 29.617188 -0.632812 29.441406 -0.363281 29.203125 -0.21875 C 28.972656 -0.0703125 28.640625 0 28.203125 0 L 6.265625 0 C 5.835938 0 5.503906 -0.0703125 5.265625 -0.21875 C 5.023438 -0.363281 4.847656 -0.632812 4.734375 -1.03125 C 4.617188 -1.4375 4.5625 -2.019531 4.5625 -2.78125 C 4.5625 -3.539062 4.617188 -4.117188 4.734375 -4.515625 C 4.847656 -4.921875 5.023438 -5.203125 5.265625 -5.359375 C 5.503906 -5.515625 5.835938 -5.59375 6.265625 -5.59375 L 13.71875 -5.59375 L 13.71875 -19.609375 L 7.90625 -19.609375 C 7.46875 -19.609375 7.128906 -19.679688 6.890625 -19.828125 C 6.660156 -19.972656 6.484375 -20.242188 6.359375 -20.640625 C 6.242188 -21.046875 6.1875 -21.628906 6.1875 -22.390625 C 6.1875 -23.148438 6.242188 -23.726562 6.359375 -24.125 C 6.484375 -24.53125 6.660156 -24.8125 6.890625 -24.96875 C 7.128906 -25.125 7.46875 -25.203125 7.90625 -25.203125 Z M 17.046875 -37.171875 C 18.335938 -37.171875 19.238281 -37.039062 19.75 -36.78125 C 20.269531 -36.519531 20.53125 -36.078125 20.53125 -35.453125 L 20.53125 -30.984375 C 20.53125 -30.367188 20.285156 -29.925781 19.796875 -29.65625 C 19.316406 -29.394531 18.441406 -29.265625 17.171875 -29.265625 C 15.898438 -29.265625 15.003906 -29.394531 14.484375 -29.65625 C 13.972656 -29.925781 13.71875 -30.367188 13.71875 -30.984375 L 13.71875 -35.453125 C 13.71875 -36.085938 13.953125 -36.53125 14.421875 -36.78125 C 14.890625 -37.039062 15.765625 -37.171875 17.046875 -37.171875 Z M 17.046875 -37.171875 "/></g></g></g><g fill="#ffffff" fill-opacity="1"><g transform="translate(477.098798, 229.832309)"><g><path d="M 10.203125 -35.78125 C 10.816406 -35.78125 11.253906 -35.648438 11.515625 -35.390625 C 11.785156 -35.128906 11.921875 -34.6875 11.921875 -34.0625 L 11.921875 -22.578125 C 12.847656 -23.617188 13.921875 -24.414062 15.140625 -24.96875 C 16.359375 -25.519531 17.675781 -25.796875 19.09375 -25.796875 C 21.476562 -25.796875 23.5625 -25.210938 25.34375 -24.046875 C 27.125 -22.890625 28.484375 -21.3125 29.421875 -19.3125 C 30.367188 -17.3125 30.84375 -15.070312 30.84375 -12.59375 C 30.84375 -10.125 30.367188 -7.890625 29.421875 -5.890625 C 28.484375 -3.890625 27.125 -2.304688 25.34375 -1.140625 C 23.5625 0.015625 21.476562 0.59375 19.09375 0.59375 C 17.363281 0.59375 15.789062 0.191406 14.375 -0.609375 C 12.957031 -1.421875 11.773438 -2.554688 10.828125 -4.015625 L 10.828125 -1.71875 C 10.828125 -1.101562 10.691406 -0.660156 10.421875 -0.390625 C 10.160156 -0.128906 9.722656 0 9.109375 0 L 3 0 C 2.5625 0 2.222656 -0.078125 1.984375 -0.234375 C 1.753906 -0.390625 1.578125 -0.664062 1.453125 -1.0625 C 1.335938 -1.457031 1.28125 -2.039062 1.28125 -2.8125 C 1.28125 -3.570312 1.335938 -4.148438 1.453125 -4.546875 C 1.578125 -4.953125 1.753906 -5.226562 1.984375 -5.375 C 2.222656 -5.519531 2.5625 -5.59375 3 -5.59375 L 5.09375 -5.59375 L 5.09375 -30.1875 L 2.453125 -30.1875 C 2.015625 -30.1875 1.675781 -30.257812 1.4375 -30.40625 C 1.207031 -30.550781 1.03125 -30.820312 0.90625 -31.21875 C 0.789062 -31.625 0.734375 -32.207031 0.734375 -32.96875 C 0.734375 -33.738281 0.789062 -34.320312 0.90625 -34.71875 C 1.03125 -35.125 1.207031 -35.398438 1.4375 -35.546875 C 1.675781 -35.703125 2.015625 -35.78125 2.453125 -35.78125 Z M 18 -19.609375 C 16.832031 -19.609375 15.773438 -19.332031 14.828125 -18.78125 C 13.890625 -18.238281 13.140625 -17.4375 12.578125 -16.375 C 12.015625 -15.3125 11.734375 -14.050781 11.734375 -12.59375 C 11.734375 -11.144531 12.015625 -9.890625 12.578125 -8.828125 C 13.140625 -7.765625 13.890625 -6.957031 14.828125 -6.40625 C 15.773438 -5.863281 16.832031 -5.59375 18 -5.59375 C 19.125 -5.59375 20.101562 -5.878906 20.9375 -6.453125 C 21.78125 -7.023438 22.421875 -7.835938 22.859375 -8.890625 C 23.304688 -9.941406 23.53125 -11.175781 23.53125 -12.59375 C 23.53125 -14.019531 23.304688 -15.257812 22.859375 -16.3125 C 22.421875 -17.363281 21.78125 -18.175781 20.9375 -18.75 C 20.101562 -19.320312 19.125 -19.609375 18 -19.609375 Z M 18 -19.609375 "/></g></g></g><g fill="#ffffff" fill-opacity="1"><g transform="translate(510.587916, 229.832309)"><g><path d="M 26.421875 -25.203125 C 27.046875 -25.203125 27.488281 -25.066406 27.75 -24.796875 C 28.007812 -24.535156 28.140625 -24.097656 28.140625 -23.484375 L 28.140625 -5.59375 L 30.25 -5.59375 C 30.6875 -5.59375 31.019531 -5.519531 31.25 -5.375 C 31.488281 -5.226562 31.664062 -4.953125 31.78125 -4.546875 C 31.90625 -4.148438 31.96875 -3.570312 31.96875 -2.8125 C 31.96875 -2.039062 31.90625 -1.457031 31.78125 -1.0625 C 31.664062 -0.664062 31.488281 -0.390625 31.25 -0.234375 C 31.019531 -0.078125 30.6875 0 30.25 0 L 24.140625 0 C 23.523438 0 23.082031 -0.128906 22.8125 -0.390625 C 22.550781 -0.660156 22.421875 -1.101562 22.421875 -1.71875 L 22.421875 -5.671875 C 20.015625 -1.492188 17.015625 0.59375 13.421875 0.59375 C 11.765625 0.59375 10.3125 0.234375 9.0625 -0.484375 C 7.820312 -1.210938 6.863281 -2.242188 6.1875 -3.578125 C 5.519531 -4.921875 5.1875 -6.492188 5.1875 -8.296875 L 5.1875 -19.609375 L 3.078125 -19.609375 C 2.640625 -19.609375 2.300781 -19.6875 2.0625 -19.84375 C 1.832031 -20 1.65625 -20.273438 1.53125 -20.671875 C 1.414062 -21.078125 1.359375 -21.660156 1.359375 -22.421875 C 1.359375 -23.179688 1.414062 -23.757812 1.53125 -24.15625 C 1.65625 -24.5625 1.832031 -24.835938 2.0625 -24.984375 C 2.300781 -25.128906 2.640625 -25.203125 3.078125 -25.203125 L 10.28125 -25.203125 C 10.894531 -25.203125 11.332031 -25.066406 11.59375 -24.796875 C 11.863281 -24.535156 12 -24.097656 12 -23.484375 L 12 -9.90625 C 12 -8.476562 12.242188 -7.398438 12.734375 -6.671875 C 13.222656 -5.953125 14.039062 -5.59375 15.1875 -5.59375 C 16.25 -5.59375 17.25 -6.03125 18.1875 -6.90625 C 19.132812 -7.789062 19.894531 -8.96875 20.46875 -10.4375 C 21.039062 -11.914062 21.328125 -13.492188 21.328125 -15.171875 L 21.328125 -19.609375 L 18.40625 -19.609375 C 17.96875 -19.609375 17.628906 -19.6875 17.390625 -19.84375 C 17.160156 -20 16.984375 -20.273438 16.859375 -20.671875 C 16.742188 -21.078125 16.6875 -21.660156 16.6875 -22.421875 C 16.6875 -23.179688 16.742188 -23.757812 16.859375 -24.15625 C 16.984375 -24.5625 17.160156 -24.835938 17.390625 -24.984375 C 17.628906 -25.128906 17.96875 -25.203125 18.40625 -25.203125 Z M 26.421875 -25.203125 "/></g></g></g><g fill="#ffffff" fill-opacity="1"><g transform="translate(544.077034, 229.832309)"><g><path d="M 13.234375 -32.96875 C 14.085938 -32.96875 14.742188 -32.910156 15.203125 -32.796875 C 15.671875 -32.679688 15.992188 -32.503906 16.171875 -32.265625 C 16.359375 -32.023438 16.453125 -31.6875 16.453125 -31.25 L 16.453125 -23.5625 L 26.5625 -23.5625 C 27.195312 -23.5625 27.640625 -23.351562 27.890625 -22.9375 C 28.148438 -22.519531 28.28125 -21.75 28.28125 -20.625 C 28.28125 -19.488281 28.148438 -18.71875 27.890625 -18.3125 C 27.640625 -17.90625 27.195312 -17.703125 26.5625 -17.703125 L 16.453125 -17.703125 L 16.453125 -10.125 C 16.453125 -7.101562 17.625 -5.59375 19.96875 -5.59375 C 20.800781 -5.59375 21.773438 -5.773438 22.890625 -6.140625 C 24.015625 -6.515625 25.320312 -7.039062 26.8125 -7.71875 C 27.207031 -7.882812 27.523438 -7.96875 27.765625 -7.96875 C 28.148438 -7.96875 28.503906 -7.804688 28.828125 -7.484375 C 29.160156 -7.171875 29.46875 -6.648438 29.75 -5.921875 C 30.082031 -5.097656 30.25 -4.429688 30.25 -3.921875 C 30.25 -3.523438 30.148438 -3.191406 29.953125 -2.921875 C 29.765625 -2.660156 29.484375 -2.429688 29.109375 -2.234375 C 25.359375 -0.347656 22.109375 0.59375 19.359375 0.59375 C 16.203125 0.59375 13.789062 -0.285156 12.125 -2.046875 C 10.457031 -3.804688 9.625 -6.378906 9.625 -9.765625 L 9.625 -17.703125 L 4.359375 -17.703125 C 3.722656 -17.703125 3.273438 -17.90625 3.015625 -18.3125 C 2.765625 -18.71875 2.640625 -19.488281 2.640625 -20.625 C 2.640625 -21.75 2.765625 -22.519531 3.015625 -22.9375 C 3.273438 -23.351562 3.722656 -23.5625 4.359375 -23.5625 L 9.625 -23.5625 L 9.625 -31.25 C 9.625 -31.875 9.898438 -32.316406 10.453125 -32.578125 C 11.015625 -32.835938 11.941406 -32.96875 13.234375 -32.96875 Z M 13.234375 -32.96875 "/></g></g></g><g fill="#ffffff" fill-opacity="1"><g transform="translate(577.566152, 229.832309)"><g><path d="M 17.125 -25.796875 C 19.894531 -25.796875 22.25 -25.203125 24.1875 -24.015625 C 26.132812 -22.828125 27.601562 -21.171875 28.59375 -19.046875 C 29.582031 -16.929688 30.078125 -14.507812 30.078125 -11.78125 C 30.078125 -11.164062 29.945312 -10.726562 29.6875 -10.46875 C 29.425781 -10.21875 28.984375 -10.09375 28.359375 -10.09375 L 10.859375 -10.09375 C 11.203125 -8.632812 11.941406 -7.519531 13.078125 -6.75 C 14.210938 -5.976562 15.65625 -5.59375 17.40625 -5.59375 C 20.21875 -5.59375 23.269531 -6.09375 26.5625 -7.09375 C 26.78125 -7.164062 27 -7.203125 27.21875 -7.203125 C 27.625 -7.203125 27.96875 -7.019531 28.25 -6.65625 C 28.539062 -6.289062 28.804688 -5.671875 29.046875 -4.796875 C 29.234375 -4.128906 29.328125 -3.554688 29.328125 -3.078125 C 29.328125 -2.609375 29.21875 -2.238281 29 -1.96875 C 28.789062 -1.707031 28.453125 -1.5 27.984375 -1.34375 C 26.160156 -0.738281 24.300781 -0.265625 22.40625 0.078125 C 20.519531 0.421875 18.671875 0.59375 16.859375 0.59375 C 14.085938 0.59375 11.703125 0.03125 9.703125 -1.09375 C 7.703125 -2.21875 6.179688 -3.773438 5.140625 -5.765625 C 4.097656 -7.753906 3.578125 -10.03125 3.578125 -12.59375 C 3.578125 -15.144531 4.117188 -17.421875 5.203125 -19.421875 C 6.296875 -21.421875 7.867188 -22.984375 9.921875 -24.109375 C 11.984375 -25.234375 14.382812 -25.796875 17.125 -25.796875 Z M 17.125 -19.609375 C 13.800781 -19.609375 11.75 -18.207031 10.96875 -15.40625 L 22.96875 -15.40625 C 22.65625 -16.738281 21.992188 -17.769531 20.984375 -18.5 C 19.972656 -19.238281 18.6875 -19.609375 17.125 -19.609375 Z M 17.125 -19.609375 "/></g></g></g></svg>